<svg width="64" height="64" viewBox="0 0 64 64" fill="none" xmlns="http://www.w3.org/2000/svg">
<path d="M35.4899 9V8.86C35.4899 8.86 35.4899 8.86 35.4899 8.78C35.468 8.68781 35.4308 8.59993 35.3799 8.52C35.3572 8.46904 35.3268 8.42183 35.2899 8.38C35.2932 8.35678 35.2932 8.33322 35.2899 8.31C35.2006 8.25626 35.1024 8.219 34.9999 8.2C34.9999 8.2 34.9999 8.14 34.9999 8.13L24.9399 3.13C24.6981 3.01908 24.424 3.00128 24.1699 3.08C23.921 3.16857 23.7142 3.34688 23.5899 3.58L13.5899 23.65C13.5132 23.8022 13.4767 23.9715 13.4838 24.1419C13.4909 24.3122 13.5415 24.4778 13.6306 24.6231C13.7198 24.7684 13.8447 24.8885 13.9933 24.9719C14.1419 25.0554 14.3094 25.0995 14.4799 25.1H19.4799C19.6067 25.1019 19.7325 25.0781 19.8499 25.03C19.9691 24.9813 20.0777 24.91 20.1699 24.82L20.3799 24.62L31.7899 13.14L35.1999 9.73C35.2806 9.64214 35.345 9.54053 35.3899 9.43V9.37C35.4298 9.26806 35.4502 9.15949 35.4499 9.05C35.4665 9.0362 35.4801 9.01919 35.4899 9V9Z" fill="#71B263" id="id_101"></path>
<path d="M19.6501 24.86C19.3878 24.8589 19.1364 24.7547 18.9501 24.57C18.7905 24.4117 18.6889 24.2042 18.6617 23.981C18.6344 23.7579 18.6832 23.532 18.8001 23.34L24.1001 12.7C24.2171 12.465 24.4219 12.2854 24.6701 12.2C24.796 12.1584 24.929 12.1424 25.0611 12.1527C25.1933 12.163 25.3222 12.1994 25.4401 12.26C25.7178 12.399 26.0201 12.4819 26.3299 12.5038C26.6396 12.5258 26.9506 12.4864 27.2451 12.3879C27.5396 12.2894 27.8118 12.1338 28.046 11.93C28.2802 11.7261 28.4719 11.4781 28.6101 11.2C28.6683 11.076 28.7513 10.9652 28.8541 10.8746C28.9568 10.784 29.0771 10.7155 29.2075 10.6733C29.3378 10.6311 29.4754 10.6162 29.6117 10.6293C29.7481 10.6425 29.8803 10.6836 30.0001 10.75L31.5801 11.54C31.7965 11.6702 31.9556 11.8774 32.0255 12.12C32.0954 12.3626 32.0709 12.6227 31.957 12.8481C31.843 13.0734 31.6481 13.2473 31.4112 13.3348C31.1744 13.4224 30.9132 13.4171 30.6801 13.32L29.9001 12.93C29.3729 13.5605 28.6803 14.0314 27.9001 14.29C27.1286 14.5471 26.3004 14.5817 25.5101 14.39L20.5801 24.31C20.5259 24.4029 20.4622 24.4901 20.3901 24.57C20.2931 24.6663 20.1774 24.7418 20.0502 24.7917C19.9229 24.8415 19.7867 24.8648 19.6501 24.86Z" fill="#E6E6E6" id="id_102"></path>
<path d="M51.0601 18.32L38.1301 5.38998C38.0371 5.29625 37.9265 5.22185 37.8046 5.17108C37.6828 5.12032 37.5521 5.09418 37.4201 5.09418C37.288 5.09418 37.1573 5.12032 37.0355 5.17108C36.9136 5.22185 36.803 5.29625 36.7101 5.38998L18.7101 23.39C18.5713 23.5306 18.4773 23.7092 18.4399 23.9032C18.4026 24.0972 18.4235 24.2979 18.5001 24.48C18.5751 24.6626 18.7025 24.8189 18.8662 24.9293C19.0299 25.0396 19.2226 25.099 19.4201 25.1H45.3101C45.4417 25.1007 45.5721 25.0755 45.694 25.0257C45.8158 24.976 45.9266 24.9027 46.0201 24.81L51.0201 19.81C51.2028 19.6183 51.3064 19.3647 51.3101 19.1C51.3258 18.9597 51.3117 18.8176 51.2686 18.6832C51.2255 18.5488 51.1544 18.425 51.0601 18.32Z" fill="#71B263" id="id_103"></path>
<path d="M42.2101 17.35C42.3028 17.2566 42.3761 17.1458 42.4259 17.0239C42.4756 16.9021 42.5009 16.7716 42.5001 16.64C42.5009 16.5084 42.4756 16.3779 42.4259 16.2561C42.3761 16.1343 42.3028 16.0235 42.2101 15.93L40.5001 14.24C40.3127 14.0538 40.0593 13.9492 39.7951 13.9492C39.5309 13.9492 39.2775 14.0538 39.0901 14.24C38.8707 14.461 38.6098 14.6364 38.3223 14.7562C38.0348 14.8759 37.7265 14.9375 37.4151 14.9375C37.1037 14.9375 36.7954 14.8759 36.5079 14.7562C36.2204 14.6364 35.9595 14.461 35.7401 14.24C35.6471 14.1463 35.5365 14.0719 35.4147 14.0211C35.2928 13.9704 35.1621 13.9442 35.0301 13.9442C34.8981 13.9442 34.7674 13.9704 34.6455 14.0211C34.5237 14.0719 34.4131 14.1463 34.3201 14.24L25.2001 23.36C25.1064 23.453 25.032 23.5636 24.9812 23.6854C24.9304 23.8073 24.9043 23.938 24.9043 24.07C24.9043 24.202 24.9304 24.3327 24.9812 24.4546C25.032 24.5764 25.1064 24.6871 25.2001 24.78C25.2931 24.8737 25.4037 24.9481 25.5255 24.9989C25.6474 25.0497 25.7781 25.0758 25.9101 25.0758C26.0421 25.0758 26.1728 25.0497 26.2947 24.9989C26.4165 24.9481 26.5271 24.8737 26.6201 24.78L28.4301 23C29.0975 22.3453 29.9952 21.9785 30.9301 21.9785C31.865 21.9785 32.7627 22.3453 33.4301 23C33.8293 23.3893 34.1278 23.8697 34.3001 24.4C34.3637 24.6024 34.4901 24.7792 34.6608 24.9051C34.8316 25.0309 35.038 25.0992 35.2501 25.1C35.3521 25.0987 35.4532 25.0819 35.5501 25.05C35.8015 24.9696 36.0108 24.7931 36.1326 24.5589C36.2544 24.3248 36.2786 24.052 36.2001 23.8C35.936 22.9618 35.4728 22.2001 34.8501 21.58C33.9261 20.6693 32.7127 20.1104 31.4201 20L35.1101 16.31C35.8033 16.7364 36.6012 16.9621 37.4151 16.9621C38.2289 16.9621 39.0269 16.7364 39.7201 16.31L40.1701 16.75C39.7478 17.4253 39.5195 18.2037 39.5101 19C39.5105 19.8147 39.7429 20.6125 40.1801 21.3L38.1801 23.3C38.0864 23.393 38.012 23.5036 37.9612 23.6254C37.9104 23.7473 37.8843 23.878 37.8843 24.01C37.8843 24.142 37.9104 24.2727 37.9612 24.3946C38.012 24.5164 38.0864 24.627 38.1801 24.72C38.2731 24.8137 38.3837 24.8881 38.5055 24.9389C38.6274 24.9897 38.7581 25.0158 38.8901 25.0158C39.0221 25.0158 39.1528 24.9897 39.2747 24.9389C39.3965 24.8881 39.5071 24.8137 39.6001 24.72L42.2501 22.07C42.3438 21.977 42.4182 21.8664 42.469 21.7446C42.5198 21.6227 42.5459 21.492 42.5459 21.36C42.5459 21.228 42.5198 21.0973 42.469 20.9754C42.4182 20.8536 42.3438 20.743 42.2501 20.65C41.8158 20.213 41.5688 19.6241 41.5613 19.0081C41.5539 18.3921 41.7866 17.7974 42.2101 17.35V17.35Z" fill="#E6E6E6" id="id_104"></path>
<path d="M50.46 23.07H7.85C5.17142 23.07 3 25.2414 3 27.92V56.15C3 58.8286 5.17142 61 7.85 61H50.46C53.1386 61 55.31 58.8286 55.31 56.15V27.92C55.31 25.2414 53.1386 23.07 50.46 23.07Z" fill="#2BA0B5" id="id_105"></path>
<path d="M55.1901 35.23H45.8501C45.0544 35.23 44.2914 35.5461 43.7288 36.1087C43.1662 36.6713 42.8501 37.4343 42.8501 38.23V44.14C42.8501 44.9356 43.1662 45.6987 43.7288 46.2613C44.2914 46.8239 45.0544 47.14 45.8501 47.14H55.1901C56.1741 47.14 57.1177 46.7491 57.8135 46.0533C58.5092 45.3576 58.9001 44.4139 58.9001 43.43V38.93C58.8975 37.9478 58.5054 37.0067 57.8099 36.3131C57.1145 35.6195 56.1723 35.23 55.1901 35.23V35.23Z" fill="#E6E6E6" id="id_106"></path>
<path d="M45.7601 38.07H43.8501C43.5849 38.07 43.3305 38.1754 43.143 38.3629C42.9555 38.5504 42.8501 38.8048 42.8501 39.07V43.29C42.8501 43.5552 42.9555 43.8096 43.143 43.9971C43.3305 44.1846 43.5849 44.29 43.8501 44.29H45.7601C46.5557 44.2449 47.3039 43.8971 47.8513 43.3178C48.3986 42.7386 48.7035 41.9719 48.7035 41.175C48.7035 40.3781 48.3986 39.6114 47.8513 39.0322C47.3039 38.4529 46.5557 38.1051 45.7601 38.06V38.07Z" fill="#2BA0B5" id="id_107"></path>
</svg>